<?xml version="1.0" encoding="UTF-8" standalone="no"?>
<!-- Created with Inkscape (http://www.inkscape.org/) -->

<svg
   width="499.99997mm"
   height="500mm"
   viewBox="0 0 499.99997 500"
   version="1.1"
   id="svg1"
   xmlns="http://www.w3.org/2000/svg"
   xmlns:svg="http://www.w3.org/2000/svg">
  <defs
     id="defs1" />
  <g
     id="layer1"
     transform="translate(-80.000007,-123.5)">
    <path
       style="font-variation-settings:'wght' 200;fill:#101d28;fill-opacity:1;stroke:#ffffff;stroke-width:0.0361907"
       id="rect1"
       width="49.96381"
       height="49.96381"
       x="80.018097"
       y="123.5181"
       d="m 90.60143,123.5181 28.79714,0 a 10.583333,10.583333 45 0 1 10.58334,10.58333 v 28.79714 a 10.583333,10.583333 135 0 1 -10.58334,10.58334 H 90.60143 A 10.583333,10.583333 45 0 1 80.018097,162.89857 V 134.10143 A 10.583333,10.583333 135 0 1 90.60143,123.5181 Z"
       transform="matrix(9.9999999,0,0,9.9999999,-720,-1111.5)" />
    <path
       d="m 96.532994,158.43306 c -0.689812,-0.0528 -1.330665,-0.17632 -1.922558,-0.37056 -0.416282,-0.13661 -1.063847,-0.43749 -1.432176,-0.67463 -0.420608,-0.27079 -0.791231,-0.58741 -1.111871,-0.94984 -0.290196,-0.32802 -0.670816,-0.93425 -0.83839,-1.33884 -0.20126,-0.48593 -0.333079,-1.01353 -0.395457,-1.58279 -0.04773,-0.43555 0.31335,-0.79224 0.751726,-0.79224 h 1.680241 c 0.438376,0 0.779021,0.3623 0.885443,0.78642 0.06156,0.24532 0.154106,0.47186 0.27765,0.67961 0.223146,0.37524 0.777518,0.84833 1.173329,1.03367 0.282487,0.13228 0.594,0.22629 0.934539,0.28204 0.43214,0.0708 1.149351,0.0718 1.580697,-0.003 0.294218,-0.0512 0.563253,-0.13311 0.807105,-0.24565 0.396499,-0.18299 0.941405,-0.66934 1.159158,-1.04774 0.11433,-0.19867 0.20081,-0.41388 0.25942,-0.64563 0.10721,-0.42392 0.10688,-1.15016 -0.0123,-1.57056 -0.0192,-0.0679 -0.0411,-0.13458 -0.0657,-0.20017 -0.15306,-0.409 -0.590881,-0.9941 -0.944845,-1.24938 -0.07849,-0.0566 -0.160997,-0.10919 -0.247533,-0.15775 -0.381279,-0.21393 -1.080252,-0.37956 -1.505024,-0.48793 l -1.06533,-0.27176 c -0.424772,-0.10837 -1.116011,-0.27867 -1.52761,-0.42898 -0.776802,-0.28368 -1.447515,-0.67987 -2.012138,-1.18858 -0.325415,-0.2932 -0.785019,-0.8412 -1.013072,-1.21512 -0.376668,-0.61757 -0.613187,-1.29913 -0.709556,-2.04467 -0.05616,-0.43447 -0.05589,-1.14853 -0.0051,-1.58371 0.1163,-0.99626 0.460008,-1.85086 1.031123,-2.5638 0.273789,-0.34178 0.804197,-0.82267 1.168027,-1.06645 0.809518,-0.54241 1.781014,-0.86358 2.914489,-0.96352 0.436535,-0.0385 1.148942,-0.0383 1.585585,-9e-4 0.596406,0.0511 1.15002,0.16162 1.66084,0.33159 0.415645,0.1383 1.059745,0.44816 1.423585,0.69203 0.36696,0.24597 0.69009,0.5303 0.96938,0.85299 0.28656,0.33108 0.66164,0.94172 0.82651,1.34734 0.16605,0.40851 0.27826,0.84778 0.33665,1.31781 0.054,0.43475 -0.30788,0.79182 -0.74626,0.79182 h -1.65368 c -0.43837,0 -0.776483,-0.36536 -0.903925,-0.78312 -0.04338,-0.1422 -0.09956,-0.27733 -0.168558,-0.40539 -0.206886,-0.38399 -0.757003,-0.8695 -1.156287,-1.04599 -0.18369,-0.0812 -0.38113,-0.14357 -0.592319,-0.18714 -0.428595,-0.0884 -1.149448,-0.0892 -1.57702,0.004 -0.193769,0.0421 -0.375297,0.10093 -0.544584,0.17652 -0.398468,0.17791 -0.94105,0.67478 -1.134514,1.06543 -0.05345,0.10792 -0.09806,0.22109 -0.133841,0.33949 -0.126347,0.41813 -0.127833,1.14972 0.0041,1.56596 0.0019,0.006 0.0038,0.0119 0.0057,0.0178 0.135183,0.41396 0.626008,0.9615 1.002197,1.18333 0.03566,0.021 0.07205,0.0415 0.109153,0.0614 0.38569,0.20662 1.081104,0.37823 1.506638,0.48356 l 1.142271,0.28273 c 0.425534,0.10533 1.118111,0.27085 1.529483,0.4217 0.814473,0.29866 1.511083,0.73203 2.089823,1.30009 0.3126,0.30683 0.75031,0.87189 0.97113,1.25019 0.41211,0.706 0.66554,1.48965 0.76029,2.35095 0.0479,0.43554 0.0485,1.14909 -0.002,1.58428 -0.0628,0.53961 -0.19198,1.04164 -0.38745,1.50608 -0.16988,0.40362 -0.54433,1.01379 -0.8266,1.3486 -0.30223,0.35849 -0.65501,0.67451 -1.05833,0.94808 -0.36253,0.2459 -1.00482,0.55856 -1.420304,0.69746 -0.56544,0.18903 -1.180706,0.30988 -1.845798,0.36255 -0.436895,0.0346 -1.148973,0.0344 -1.585964,9.5e-4 z m 9.685226,-1.02985 V 139.5968 a 0.79374998,0.79374998 135 0 1 0.79375,-0.79375 h 1.73337 a 0.79374998,0.79374998 45 0 1 0.79375,0.79375 v 8.93303 a 0.79374998,0.79374998 45 0 0 0.79375,0.79375 h 0.7504 a 1.4097165,1.4097165 150.61803 0 0 1.20536,-0.67869 l 2.65706,-4.38109 a 1.4097165,1.4097165 150.61803 0 1 1.20536,-0.67869 h 2.10531 a 0.44452847,0.44452847 60.749608 0 1 0.37903,0.67679 l -3.50098,5.71324 a 1.3143923,1.3143923 90.371807 0 0 -0.009,1.3589 l 3.678,6.18081 a 0.45131962,0.45131962 119.6222 0 1 -0.38784,0.68211 h -2.18501 a 1.3871884,1.3871884 29.778213 0 1 -1.19593,-0.68431 l -2.75562,-4.68866 a 1.3871884,1.3871884 29.778213 0 0 -1.19593,-0.68431 h -0.7504 a 0.79374998,0.79374998 135 0 0 -0.79375,0.79375 v 4.46978 a 0.79374998,0.79374998 135 0 1 -0.79375,0.79375 h -1.73337 a 0.79374998,0.79374998 45 0 1 -0.79375,-0.79375 z"
       id="text1"
       style="color:#000000;font-style:normal;font-variant:normal;font-weight:normal;font-stretch:normal;font-size:medium;line-height:normal;font-family:sans-serif;-inkscape-font-specification:'JetBrains Mono, Bold';font-variant-ligatures:normal;font-variant-position:normal;font-variant-caps:normal;font-variant-numeric:normal;font-variant-alternates:normal;font-variant-east-asian:normal;font-feature-settings:normal;font-variation-settings:normal;text-indent:0;text-align:start;text-decoration-line:none;text-decoration-style:solid;text-decoration-color:#000000;letter-spacing:normal;word-spacing:normal;text-transform:none;writing-mode:lr-tb;direction:ltr;text-orientation:mixed;dominant-baseline:auto;baseline-shift:baseline;text-anchor:start;white-space:normal;shape-padding:0;shape-margin:0;inline-size:0;clip-rule:nonzero;display:inline;overflow:visible;visibility:visible;isolation:auto;mix-blend-mode:normal;color-interpolation:sRGB;color-interpolation-filters:linearRGB;solid-color:#000000;solid-opacity:1;vector-effect:none;fill:#27b4b4;fill-opacity:1;fill-rule:nonzero;stroke:none;stroke-linecap:butt;stroke-linejoin:miter;stroke-miterlimit:4;stroke-dasharray:none;stroke-dashoffset:0;stroke-opacity:1;-inkscape-stroke:none;color-rendering:auto;image-rendering:auto;shape-rendering:auto;text-rendering:auto;enable-background:accumulate;stop-color:#000000;stop-opacity:1"
       aria-label="Sk"
       transform="matrix(9.9999999,0,0,9.9999999,-718.47673,-1111.5021)" />
  </g>
</svg>
